<?xml version="1.0" encoding="utf-8"?>
<!-- Generator: Adobe Illustrator 20.0.0, SVG Export Plug-In . SVG Version: 6.00 Build 0)  -->
<svg version="1.1" id="Camada_1" xmlns="http://www.w3.org/2000/svg" xmlns:xlink="http://www.w3.org/1999/xlink" x="0px" y="0px"
	 width="300px" height="300px" viewBox="0 0 300 300" style="enable-background:new 0 0 300 300;" xml:space="preserve">
<style type="text/css">
	.st0{fill:#D33837;}
	.st1{fill:#ED684E;}
	.st2{fill:#F5A36A;}
	.st3{fill:#0C1624;}
</style>
<g>
	<path class="st0" d="M226.3,87.5c-5.2-4.2-10.6-8-16.3-11.2l-1.8,8.8c2.6,1.4,4.5,3.3,5.4,4.3c0.5,0.6,0.8,1,0.8,1
		c0.3,0.4,0.2,1-0.2,1.4l-5.2,5c9.2,4.9,17.4,11.6,24.4,19.8c5.1,6,9.4,12.7,12.8,19.8l3.8-2.9c0.4-0.3,1-0.3,1.4,0.1
		c0,0,0.4,0.3,0.9,1c0.9,1.1,2.2,2.8,3.1,5l10.3-0.8c-2.6-6-5.7-11.8-9.2-17.4c-6.5-0.4-14.6-5-21-12.5
		C229.4,101.9,226.2,93.9,226.3,87.5z"/>
	<path class="st1" d="M111.8,108.4c-3.2,7.3-10.3,12.5-19.8,14.5c-1.2,0.2-2.3,0.4-3.5,0.6c-1.2,9.5-0.9,19.5,1,29.8l21.2-1.7
		c-1.2-5.7-0.4-9.9-0.4-10.1c0.1-0.3,0.2-0.6,0.5-0.7c0.3-0.2,0.6-0.2,0.9-0.1l19.9,5.9c-2.8-18.8,2.2-35.5,14.1-46.4l-11.2-9.9
		l-0.1-0.1c-0.3-0.4-0.4-0.9-0.1-1.3c1.4-2.4,3.2-4.3,5.5-5.9l-12.7-14.8c-5.5,2.6-10.6,5.8-15.1,9.6c-1.5,1.3-2.9,2.7-4.3,4.1
		C113.6,90.4,115.5,100.1,111.8,108.4z"/>
	<path class="st2" d="M152.4,65.9c-1.7-1.2-3.2-2.4-4.6-3.8c-6.5,0.8-12.8,2.5-18.7,4.9l12.5,14.6c4.1-2.4,7.8-2.7,8-2.7
		c0.4,0,0.7,0.1,0.9,0.4c0.1,0.1,0.2,0.2,0.2,0.4l4.7,13.7c13-6.6,29.4-6.7,45.5-0.3l-1.5-8.5c-0.1-0.3,0-0.6,0.2-0.9
		c0.2-0.2,0.5-0.4,0.8-0.4c2-0.1,3.8,0.2,5.7,0.9l1.8-9c-6.9-3.8-13.9-6.8-21-9C180.8,75,165.3,74.9,152.4,65.9z"/>
	<path class="st0" d="M257.5,89.7C248.3,79,236,74.5,230,79.6c-2,1.7-3,4.3-3.2,7.5l0,0c0,0.5,0,0.9,0,1.4c0.2,5.9,3.3,13.3,9,19.8
		c6,7,13.4,11.4,19.4,12.1c0.5,0.1,0.9,0.1,1.4,0.1l0,0c2.6,0.1,4.9-0.6,6.7-2.1C269.3,113.3,266.7,100.4,257.5,89.7z"/>
	<path class="st1" d="M110.3,108.1c3.5-7.9,1.7-17.2-3.9-25.4c-0.2-0.3-0.4-0.6-0.6-1c-4.8-6.5-12-12.4-20.9-16.3
		c-20.4-9-42.3-4.5-48.7,10s5,33.7,25.4,42.7c8.4,3.7,17.3,5.2,25.4,4.5l0,0c0.4,0,0.8-0.1,1.2-0.1c1.1-0.1,2.1-0.3,3.1-0.5
		C100.5,120,107.2,115.1,110.3,108.1z"/>
	<path class="st2" d="M185.4,66c0.1-0.1,0.2-0.2,0.3-0.3c0.1-0.2,0.3-0.4,0.4-0.6l0,0c5.1-8.4-0.2-21.8-12.4-30.2
		c-12.4-8.6-27.3-8.8-33.1-0.5c-5,7.2-1.7,18.4,7.1,26.9l0,0c0.4,0.3,0.7,0.7,1.1,1c1.2,1,2.4,2.1,3.8,3
		C164.8,73.7,179.4,74,185.4,66z"/>
</g>
<g>
	<g>
		<path class="st3" d="M67.4,179.3H54.3v44.1H43.5v-44.1H30.6v-8.9h36.7V179.3z"/>
		<path class="st3" d="M90.1,194l-3.4-0.3c-2.8,0-4.7,1.2-5.7,3.7v26H70.6V184h9.7l0.3,4.3c1.6-3.3,3.9-5,6.7-5
			c1.2,0,2.1,0.2,2.8,0.5L90.1,194z"/>
		<path class="st3" d="M113,223.4c-0.3-0.6-0.6-1.6-0.9-3.1c-1.8,2.5-4.3,3.8-7.5,3.8c-3.3,0-6-1.1-8.2-3.3c-2.2-2.2-3.3-5-3.3-8.5
			c0-4.1,1.3-7.3,4-9.6c2.6-2.3,6.4-3.4,11.4-3.5h3.1v-3.2c0-1.8-0.3-3-0.9-3.8c-0.6-0.7-1.5-1.1-2.7-1.1c-2.6,0-3.9,1.5-3.9,4.5
			H93.9c0-3.6,1.4-6.6,4.1-9c2.7-2.4,6.2-3.6,10.4-3.6c4.3,0,7.7,1.1,10,3.4c2.4,2.2,3.6,5.5,3.6,9.6v18.5c0,3.4,0.5,6.1,1.5,8v0.6
			H113z M106.9,216.1c1.1,0,2.1-0.2,2.9-0.7c0.8-0.5,1.4-1,1.8-1.6v-8.2h-2.5c-1.7,0-3.1,0.6-4.1,1.7c-1,1.1-1.5,2.6-1.5,4.5
			C103.5,214.6,104.6,216.1,106.9,216.1z"/>
		<path class="st3" d="M129.4,173.8c0-1.6,0.5-2.9,1.5-3.9c1-1,2.4-1.5,4.1-1.5c1.7,0,3.1,0.5,4.1,1.5c1,1,1.5,2.3,1.5,3.9
			c0,1.6-0.5,2.9-1.5,3.9c-1,1-2.4,1.6-4.1,1.6c-1.7,0-3.1-0.5-4.1-1.6C129.9,176.7,129.4,175.4,129.4,173.8z M140.2,223.4h-10.3
			V184h10.3V223.4z"/>
		<path class="st3" d="M157.6,184l0.3,3.9c2.3-3.1,5.4-4.6,9.1-4.6c6.8,0,10.3,4.7,10.5,14.2v25.9h-10.3v-25.1c0-2.2-0.3-3.9-1-4.9
			c-0.7-1-1.8-1.5-3.5-1.5c-1.9,0-3.3,1-4.4,2.9v28.6h-10.3V184H157.6z"/>
		<path class="st3" d="M184.9,173.8c0-1.6,0.5-2.9,1.5-3.9c1-1,2.4-1.5,4.1-1.5c1.7,0,3.1,0.5,4.1,1.5c1,1,1.5,2.3,1.5,3.9
			c0,1.6-0.5,2.9-1.5,3.9c-1,1-2.4,1.6-4.1,1.6c-1.7,0-3.1-0.5-4.1-1.6C185.4,176.7,184.9,175.4,184.9,173.8z M195.7,223.4h-10.3
			V184h10.3V223.4z"/>
		<path class="st3" d="M213.1,184l0.3,3.9c2.3-3.1,5.4-4.6,9.1-4.6c6.8,0,10.3,4.7,10.5,14.2v25.9h-10.3v-25.1c0-2.2-0.3-3.9-1-4.9
			c-0.7-1-1.8-1.5-3.5-1.5c-1.9,0-3.3,1-4.4,2.9v28.6h-10.3V184H213.1z"/>
		<path class="st3" d="M239.2,202.5c0-6.5,1.2-11.3,3.5-14.5c2.3-3.2,5.6-4.8,9.8-4.8c3.6,0,6.3,1.4,8.3,4.2l0.4-3.5h9.3v39.4
			c0,5-1.4,8.9-4.2,11.5c-2.8,2.7-6.9,4-12.1,4c-2.2,0-4.4-0.4-6.8-1.3c-2.4-0.9-4.2-2-5.3-3.3l3.5-7.1c1,1,2.2,1.9,3.8,2.5
			c1.6,0.6,3,1,4.4,1c2.3,0,4-0.6,5-1.7c1-1.1,1.5-2.9,1.5-5.3v-3.4c-2,2.6-4.5,3.9-7.7,3.9c-4.2,0-7.4-1.6-9.7-4.9
			c-2.3-3.3-3.5-7.9-3.5-13.8V202.5z M249.5,205.1c0,3.6,0.5,6.3,1.4,8c0.9,1.7,2.5,2.5,4.5,2.5c2.1,0,3.7-0.8,4.7-2.3v-18.8
			c-1.1-1.7-2.6-2.5-4.6-2.5c-2,0-3.6,0.8-4.5,2.5c-1,1.7-1.5,4.4-1.5,8.1V205.1z"/>
	</g>
	<g>
		<path class="st3" d="M114.5,257.9c-0.2,4.8-1.6,8.4-4,10.9c-2.5,2.5-6,3.7-10.5,3.7c-4.7,0-8.4-1.6-10.9-4.7
			c-2.5-3.1-3.8-7.6-3.8-13.3v-7.1c0-5.8,1.3-10.2,3.9-13.3c2.6-3.1,6.2-4.7,10.9-4.7c4.6,0,8,1.3,10.4,3.8c2.4,2.6,3.7,6.2,4,11
			h-8.5c-0.1-3-0.5-5-1.4-6.1c-0.8-1.1-2.4-1.7-4.6-1.7c-2.3,0-3.9,0.8-4.8,2.4c-0.9,1.6-1.4,4.2-1.5,7.8v7.9c0,4.2,0.5,7,1.4,8.6
			c0.9,1.6,2.5,2.3,4.8,2.3c2.2,0,3.8-0.5,4.6-1.6c0.8-1.1,1.3-3,1.4-5.9H114.5z"/>
		<path class="st3" d="M131.9,272.5c-4.2,0-7.4-1.2-9.8-3.7c-2.3-2.5-3.5-6.1-3.5-10.7v-2.5c0-4.9,1.1-8.7,3.2-11.4
			c2.1-2.7,5.2-4,9.2-4c3.9,0,6.9,1.3,8.8,3.8c2,2.5,3,6.2,3,11.1v4h-16.2c0.1,2.3,0.6,4,1.5,5.1c0.9,1.1,2.3,1.6,4.2,1.6
			c2.7,0,5-0.9,6.8-2.8l3.2,4.9c-1,1.4-2.4,2.5-4.3,3.4C136.2,272,134.1,272.5,131.9,272.5z M126.8,253.3h8.1v-0.8
			c0-1.9-0.3-3.3-0.9-4.3c-0.6-1-1.6-1.5-3-1.5c-1.4,0-2.5,0.5-3.1,1.5C127.3,249.4,126.9,251.1,126.8,253.3z"/>
		<path class="st3" d="M155,240.7l0.2,3.1c1.8-2.4,4.2-3.7,7.2-3.7c5.4,0,8.1,3.8,8.3,11.3v20.5h-8.2V252c0-1.8-0.3-3-0.8-3.8
			c-0.5-0.8-1.5-1.2-2.8-1.2c-1.5,0-2.6,0.8-3.5,2.3v22.6h-8.2v-31.1H155z"/>
		<path class="st3" d="M186,233.1v7.7h4.2v6.1H186v15.5c0,1.2,0.2,2.1,0.5,2.5c0.3,0.5,1,0.7,1.9,0.7c0.8,0,1.4-0.1,1.9-0.2
			l-0.1,6.3c-1.4,0.5-2.9,0.8-4.5,0.8c-5.3,0-7.9-3-8-9v-16.6h-3.6v-6.1h3.6v-7.7H186z"/>
		<path class="st3" d="M207.2,272.5c-4.2,0-7.4-1.2-9.8-3.7c-2.3-2.5-3.5-6.1-3.5-10.7v-2.5c0-4.9,1.1-8.7,3.2-11.4
			c2.1-2.7,5.2-4,9.2-4c3.9,0,6.9,1.3,8.8,3.8c2,2.5,3,6.2,3,11.1v4H202c0.1,2.3,0.6,4,1.5,5.1c0.9,1.1,2.3,1.6,4.2,1.6
			c2.7,0,5-0.9,6.8-2.8l3.2,4.9c-1,1.4-2.4,2.5-4.3,3.4C211.5,272,209.4,272.5,207.2,272.5z M202.1,253.3h8.1v-0.8
			c0-1.9-0.3-3.3-0.9-4.3c-0.6-1-1.6-1.5-3-1.5c-1.4,0-2.5,0.5-3.1,1.5C202.6,249.4,202.2,251.1,202.1,253.3z"/>
		<path class="st3" d="M238.2,248.6l-2.7-0.2c-2.2,0-3.7,1-4.5,2.9v20.6h-8.2v-31.1h7.7l0.2,3.4c1.3-2.6,3.1-3.9,5.3-3.9
			c0.9,0,1.7,0.1,2.2,0.4L238.2,248.6z"/>
	</g>
</g>
</svg>
